<?xml version="1.0" encoding="UTF-8"?>
<svg xmlns="http://www.w3.org/2000/svg" width="1600" height="1200" viewBox="0 0 1600 1200">
  <rect width="1600" height="1200" fill="#ffffff"/>
  <style>
    .edge { stroke: #999; stroke-width: 1; stroke-opacity: 0.6; }
    .node { stroke: #fff; stroke-width: 2; }
    .label { font-family: Arial, sans-serif; font-size: 10px; fill: #333; }
  </style>
  <g id="edges">
    <line class="edge" x1="50.00" y1="1150.00" x2="1550.00" y2="50.00"/>
    <line class="edge" x1="50.00" y1="1150.00" x2="1550.00" y2="50.00"/>
    <line class="edge" x1="50.00" y1="1150.00" x2="1550.00" y2="50.00"/>
    <line class="edge" x1="50.00" y1="1150.00" x2="1550.00" y2="50.00"/>
    <line class="edge" x1="50.00" y1="1150.00" x2="1550.00" y2="50.00"/>
    <line class="edge" x1="50.00" y1="1150.00" x2="1550.00" y2="50.00"/>
    <line class="edge" x1="50.00" y1="1150.00" x2="1550.00" y2="50.00"/>
    <line class="edge" x1="50.00" y1="1150.00" x2="1550.00" y2="50.00"/>
    <line class="edge" x1="50.00" y1="1150.00" x2="1550.00" y2="50.00"/>
    <line class="edge" x1="50.00" y1="1150.00" x2="1550.00" y2="50.00"/>
    <line class="edge" x1="50.00" y1="1150.00" x2="1550.00" y2="50.00"/>
    <line class="edge" x1="50.00" y1="1150.00" x2="1550.00" y2="50.00"/>
    <line class="edge" x1="50.00" y1="1150.00" x2="1550.00" y2="50.00"/>
    <line class="edge" x1="50.00" y1="50.00" x2="1550.00" y2="1150.00"/>
    <line class="edge" x1="50.00" y1="50.00" x2="50.00" y2="50.00"/>
    <line class="edge" x1="50.00" y1="50.00" x2="50.00" y2="50.00"/>
    <line class="edge" x1="50.00" y1="50.00" x2="50.00" y2="1150.00"/>
    <line class="edge" x1="50.00" y1="50.00" x2="1550.00" y2="1150.00"/>
    <line class="edge" x1="50.00" y1="50.00" x2="50.00" y2="50.00"/>
    <line class="edge" x1="50.00" y1="50.00" x2="50.00" y2="50.00"/>
    <line class="edge" x1="50.00" y1="50.00" x2="50.00" y2="50.00"/>
    <line class="edge" x1="50.00" y1="50.00" x2="1550.00" y2="1150.00"/>
    <line class="edge" x1="50.00" y1="50.00" x2="50.00" y2="50.00"/>
    <line class="edge" x1="50.00" y1="50.00" x2="50.00" y2="50.00"/>
    <line class="edge" x1="50.00" y1="50.00" x2="1550.00" y2="50.00"/>
    <line class="edge" x1="1550.00" y1="50.00" x2="50.00" y2="1150.00"/>
    <line class="edge" x1="1550.00" y1="50.00" x2="50.00" y2="1150.00"/>
    <line class="edge" x1="1550.00" y1="50.00" x2="50.00" y2="1150.00"/>
    <line class="edge" x1="1550.00" y1="1150.00" x2="50.00" y2="50.00"/>
    <line class="edge" x1="1550.00" y1="1150.00" x2="50.00" y2="50.00"/>
    <line class="edge" x1="1550.00" y1="1150.00" x2="50.00" y2="50.00"/>
    <line class="edge" x1="1550.00" y1="1150.00" x2="50.00" y2="50.00"/>
    <line class="edge" x1="1550.00" y1="1150.00" x2="50.00" y2="50.00"/>
    <line class="edge" x1="1550.00" y1="1150.00" x2="50.00" y2="50.00"/>
    <line class="edge" x1="1550.00" y1="1150.00" x2="50.00" y2="1150.00"/>
    <line class="edge" x1="1550.00" y1="1150.00" x2="1550.00" y2="1150.00"/>
    <line class="edge" x1="1550.00" y1="1150.00" x2="50.00" y2="50.00"/>
    <line class="edge" x1="1550.00" y1="1150.00" x2="50.00" y2="50.00"/>
    <line class="edge" x1="1550.00" y1="1150.00" x2="1550.00" y2="50.00"/>
    <line class="edge" x1="1550.00" y1="1150.00" x2="50.00" y2="50.00"/>
    <line class="edge" x1="1550.00" y1="1150.00" x2="50.00" y2="50.00"/>
    <line class="edge" x1="1550.00" y1="1150.00" x2="50.00" y2="50.00"/>
    <line class="edge" x1="1550.00" y1="1150.00" x2="1550.00" y2="1150.00"/>
    <line class="edge" x1="1550.00" y1="1150.00" x2="50.00" y2="50.00"/>
    <line class="edge" x1="1550.00" y1="1150.00" x2="50.00" y2="50.00"/>
    <line class="edge" x1="50.00" y1="1150.00" x2="50.00" y2="1150.00"/>
    <line class="edge" x1="50.00" y1="1150.00" x2="1550.00" y2="50.00"/>
    <line class="edge" x1="50.00" y1="1150.00" x2="1550.00" y2="50.00"/>
    <line class="edge" x1="50.00" y1="1150.00" x2="1550.00" y2="50.00"/>
    <line class="edge" x1="50.00" y1="1150.00" x2="1550.00" y2="50.00"/>
    <line class="edge" x1="50.00" y1="1150.00" x2="1550.00" y2="50.00"/>
    <line class="edge" x1="50.00" y1="1150.00" x2="1550.00" y2="50.00"/>
    <line class="edge" x1="50.00" y1="1150.00" x2="1550.00" y2="50.00"/>
    <line class="edge" x1="50.00" y1="1150.00" x2="1550.00" y2="50.00"/>
    <line class="edge" x1="50.00" y1="1150.00" x2="1550.00" y2="50.00"/>
    <line class="edge" x1="50.00" y1="1150.00" x2="1550.00" y2="50.00"/>
    <line class="edge" x1="50.00" y1="1150.00" x2="1550.00" y2="50.00"/>
    <line class="edge" x1="50.00" y1="1150.00" x2="1550.00" y2="50.00"/>
    <line class="edge" x1="50.00" y1="1150.00" x2="1550.00" y2="50.00"/>
    <line class="edge" x1="1550.00" y1="50.00" x2="50.00" y2="50.00"/>
    <line class="edge" x1="1550.00" y1="50.00" x2="50.00" y2="50.00"/>
    <line class="edge" x1="1550.00" y1="50.00" x2="50.00" y2="1150.00"/>
    <line class="edge" x1="1550.00" y1="50.00" x2="50.00" y2="50.00"/>
    <line class="edge" x1="1550.00" y1="1150.00" x2="1550.00" y2="50.00"/>
    <line class="edge" x1="1550.00" y1="1150.00" x2="50.00" y2="50.00"/>
    <line class="edge" x1="1550.00" y1="1150.00" x2="50.00" y2="50.00"/>
    <line class="edge" x1="1550.00" y1="1150.00" x2="50.00" y2="1150.00"/>
    <line class="edge" x1="1550.00" y1="1150.00" x2="50.00" y2="50.00"/>
    <line class="edge" x1="1550.00" y1="50.00" x2="1550.00" y2="50.00"/>
    <line class="edge" x1="1550.00" y1="50.00" x2="50.00" y2="1150.00"/>
    <line class="edge" x1="1550.00" y1="50.00" x2="50.00" y2="1150.00"/>
    <line class="edge" x1="1550.00" y1="50.00" x2="50.00" y2="1150.00"/>
    <line class="edge" x1="1550.00" y1="1150.00" x2="1550.00" y2="1150.00"/>
    <line class="edge" x1="1550.00" y1="1150.00" x2="50.00" y2="50.00"/>
    <line class="edge" x1="1550.00" y1="1150.00" x2="50.00" y2="50.00"/>
    <line class="edge" x1="1550.00" y1="1150.00" x2="50.00" y2="50.00"/>
    <line class="edge" x1="1550.00" y1="1150.00" x2="50.00" y2="50.00"/>
    <line class="edge" x1="1550.00" y1="1150.00" x2="50.00" y2="50.00"/>
    <line class="edge" x1="1550.00" y1="1150.00" x2="50.00" y2="50.00"/>
  </g>
  <g id="nodes">
    <circle class="node" cx="1550.00" cy="50.00" r="8.40" fill="#FF6D00">
      <title>lock() (2 connections)</title>
    </circle>
    <circle class="node" cx="50.00" cy="1150.00" r="10.80" fill="#FF6D00">
      <title>UserRepository.cs (14 connections)</title>
    </circle>
    <text class="label" x="50.00" y="1172.80" text-anchor="middle">UserRepository.cs</text>
    <circle class="node" cx="1550.00" cy="50.00" r="8.40" fill="#FF6D00">
      <title>ArgumentException() (2 connections)</title>
    </circle>
    <circle class="node" cx="1550.00" cy="50.00" r="8.40" fill="#FF6D00">
      <title>ArgumentNullException() (2 connections)</title>
    </circle>
    <circle class="node" cx="1550.00" cy="50.00" r="8.40" fill="#FF6D00">
      <title>InvalidOperationException() (2 connections)</title>
    </circle>
    <circle class="node" cx="50.00" cy="50.00" r="8.40" fill="#34A853">
      <title>MiniLibrary (2 connections)</title>
    </circle>
    <circle class="node" cx="1550.00" cy="50.00" r="8.40" fill="#FF6D00">
      <title>if() (2 connections)</title>
    </circle>
    <circle class="node" cx="50.00" cy="50.00" r="8.40" fill="#FBBC04">
      <title>DeleteUserAsync() (2 connections)</title>
    </circle>
    <circle class="node" cx="50.00" cy="50.00" r="8.40" fill="#EA4335">
      <title>UpdateAsync() (2 connections)</title>
    </circle>
    <circle class="node" cx="1550.00" cy="1150.00" r="8.40" fill="#FBBC04">
      <title>DeactivateUserAsync() (2 connections)</title>
    </circle>
    <circle class="node" cx="50.00" cy="50.00" r="10.40" fill="#FBBC04">
      <title>UserService.cs (12 connections)</title>
    </circle>
    <text class="label" x="50.00" y="72.40" text-anchor="middle">UserService.cs</text>
    <circle class="node" cx="50.00" cy="1150.00" r="8.40" fill="#FBBC04">
      <title>CreateUserAsync() (2 connections)</title>
    </circle>
    <circle class="node" cx="1550.00" cy="50.00" r="8.40" fill="#4285F4">
      <title>UserRepository (2 connections)</title>
    </circle>
    <circle class="node" cx="1550.00" cy="50.00" r="8.40" fill="#4285F4">
      <title>UpdateAsync() (2 connections)</title>
    </circle>
    <circle class="node" cx="1550.00" cy="50.00" r="8.40" fill="#4285F4">
      <title>MiniLibrary (2 connections)</title>
    </circle>
    <circle class="node" cx="1550.00" cy="50.00" r="8.40" fill="#4285F4">
      <title>GetAllAsync() (2 connections)</title>
    </circle>
    <circle class="node" cx="50.00" cy="50.00" r="8.40" fill="#EA4335">
      <title>MiniLibrary (2 connections)</title>
    </circle>
    <circle class="node" cx="50.00" cy="1150.00" r="8.40" fill="#9C27B0">
      <title>User (2 connections)</title>
    </circle>
    <circle class="node" cx="1550.00" cy="50.00" r="8.80" fill="#9C27B0">
      <title>User.cs (4 connections)</title>
    </circle>
    <circle class="node" cx="1550.00" cy="1150.00" r="9.40" fill="#EA4335">
      <title>IRepository.cs (7 connections)</title>
    </circle>
    <circle class="node" cx="50.00" cy="1150.00" r="8.40" fill="#9C27B0">
      <title>Validate() (2 connections)</title>
    </circle>
    <circle class="node" cx="50.00" cy="50.00" r="8.40" fill="#00BCD4">
      <title>InvalidOperationException() (2 connections)</title>
    </circle>
    <circle class="node" cx="50.00" cy="50.00" r="8.40" fill="#EA4335">
      <title>DeleteAsync() (2 connections)</title>
    </circle>
    <circle class="node" cx="50.00" cy="50.00" r="8.40" fill="#EA4335">
      <title>GetAllAsync() (2 connections)</title>
    </circle>
    <circle class="node" cx="50.00" cy="50.00" r="8.40" fill="#EA4335">
      <title>IRepository (2 connections)</title>
    </circle>
    <circle class="node" cx="50.00" cy="50.00" r="8.40" fill="#EA4335">
      <title>AddAsync() (2 connections)</title>
    </circle>
    <circle class="node" cx="50.00" cy="1150.00" r="8.40" fill="#9C27B0">
      <title>MiniLibrary (2 connections)</title>
    </circle>
    <circle class="node" cx="1550.00" cy="1150.00" r="8.40" fill="#00BCD4">
      <title>if() (2 connections)</title>
    </circle>
    <circle class="node" cx="50.00" cy="50.00" r="8.40" fill="#00BCD4">
      <title>ArgumentException() (2 connections)</title>
    </circle>
    <circle class="node" cx="1550.00" cy="1150.00" r="10.40" fill="#00BCD4">
      <title>UserService.cs (12 connections)</title>
    </circle>
    <text class="label" x="1550.00" y="1172.40" text-anchor="middle">UserService.cs</text>
    <circle class="node" cx="1550.00" cy="50.00" r="8.40" fill="#4285F4">
      <title>GetActiveCountAsync() (2 connections)</title>
    </circle>
    <circle class="node" cx="50.00" cy="50.00" r="8.40" fill="#FBBC04">
      <title>MiniLibrary (2 connections)</title>
    </circle>
    <circle class="node" cx="50.00" cy="1150.00" r="10.80" fill="#4285F4">
      <title>UserRepository.cs (14 connections)</title>
    </circle>
    <text class="label" x="50.00" y="1172.80" text-anchor="middle">UserRepository.cs</text>
    <circle class="node" cx="50.00" cy="50.00" r="8.40" fill="#34A853">
      <title>ArgumentNullException() (2 connections)</title>
    </circle>
    <circle class="node" cx="1550.00" cy="50.00" r="8.40" fill="#4285F4">
      <title>DeleteAsync() (2 connections)</title>
    </circle>
    <circle class="node" cx="1550.00" cy="50.00" r="8.40" fill="#4285F4">
      <title>FindByEmailAsync() (2 connections)</title>
    </circle>
    <circle class="node" cx="1550.00" cy="50.00" r="8.40" fill="#4285F4">
      <title>AddAsync() (2 connections)</title>
    </circle>
    <circle class="node" cx="1550.00" cy="50.00" r="8.40" fill="#FBBC04">
      <title>IsUserActiveAsync() (2 connections)</title>
    </circle>
    <circle class="node" cx="50.00" cy="50.00" r="8.40" fill="#34A853">
      <title>AddMiniLibrary() (2 connections)</title>
    </circle>
    <circle class="node" cx="1550.00" cy="50.00" r="9.00" fill="#34A853">
      <title>ServiceCollectionExtensions.cs (5 connections)</title>
    </circle>
    <circle class="node" cx="1550.00" cy="1150.00" r="9.00" fill="#34A853">
      <title>ServiceCollectionExtensions.cs (5 connections)</title>
    </circle>
    <circle class="node" cx="50.00" cy="50.00" r="8.40" fill="#FBBC04">
      <title>UpdateUserAsync() (2 connections)</title>
    </circle>
    <circle class="node" cx="1550.00" cy="50.00" r="8.80" fill="#9C27B0">
      <title>User.cs (4 connections)</title>
    </circle>
    <circle class="node" cx="50.00" cy="50.00" r="8.40" fill="#FBBC04">
      <title>GetActiveUsersAsync() (2 connections)</title>
    </circle>
    <circle class="node" cx="1550.00" cy="1150.00" r="9.40" fill="#EA4335">
      <title>IRepository.cs (7 connections)</title>
    </circle>
    <circle class="node" cx="50.00" cy="50.00" r="8.40" fill="#00BCD4">
      <title>UserService() (2 connections)</title>
    </circle>
    <circle class="node" cx="50.00" cy="1150.00" r="8.40" fill="#34A853">
      <title>if() (2 connections)</title>
    </circle>
  </g>
  <g id="legend">
    <text x="20" y="30" font-family="Arial" font-size="14" font-weight="bold">Knowledge Graph</text>
    <text x="20" y="50" font-family="Arial" font-size="12" fill="#666">47 nodes · 79 edges</text>
  </g>
</svg>
